<?xml version="1.0" encoding="utf-8"?>
<!-- Generator: Adobe Illustrator 17.0.0, SVG Export Plug-In . SVG Version: 6.00 Build 0)  -->
<!DOCTYPE svg PUBLIC "-//W3C//DTD SVG 1.1//EN" "http://www.w3.org/Graphics/SVG/1.1/DTD/svg11.dtd">
<svg version="1.1" id="Layer_1" xmlns="http://www.w3.org/2000/svg" xmlns:xlink="http://www.w3.org/1999/xlink" x="0px" y="0px"
	 width="148.5px" height="154.585px" viewBox="0 0 148.5 154.585" enable-background="new 0 0 148.5 154.585" xml:space="preserve">
<image overflow="visible" width="400" height="400" xlink:href="purty_wood.png"  transform="matrix(0.3713 0 0 0.3865 0 0)">
</image>
<circle fill="none" stroke="#000000" stroke-width="4" stroke-miterlimit="10" cx="73.133" cy="78.769" r="40.569"/>
<polygon fill="none" points="226.133,-11.915 226.133,10.2 237.811,11.915 "/>
<rect x="44.54" y="55.085" fill="none" width="56.83" height="48"/>
<text transform="matrix(1 0 0 1 44.5404 101.9853)" font-family="'BebasNeue'" font-size="67">BN</text>
<path stroke="#000000" stroke-miterlimit="10" d="M60.633,35.744l12.263-23.829l12.737,23.829
	C85.633,35.744,73.383,29.402,60.633,35.744z"/>
<path stroke="#000000" stroke-miterlimit="10" d="M42.477,78.769"/>
<path fill="none" stroke="#000000" stroke-width="2" stroke-miterlimit="10" d="M28.345,87.928l-16.857-8.675l16.857-9.011
	C28.345,70.243,23.859,78.909,28.345,87.928z"/>
<path fill="none" stroke="#000000" stroke-width="2" stroke-miterlimit="10" d="M117.682,87.612l16.857-8.675l-16.857-9.011
	C117.682,69.926,122.168,78.592,117.682,87.612z"/>
<path fill="none" stroke="#000000" stroke-width="2" stroke-miterlimit="10" d="M65.407,123.483l8.675,16.857l9.011-16.857
	C83.093,123.483,74.427,127.969,65.407,123.483z"/>
</svg>
